PathFileType	4	(X/Y/Z)	C:/Users/beibeiliu/ov580/test_trc/User3\sequence.17_training_dense_left.trc
DataRate	CameraRate	NumFrames	NumMarkers	Units	OrigDataRate	OrigDataStartFrame	OrigNumFrames
120	120	21	19	mm	120	53	105
Frame#	Time	ThumbCMC			ThumbMCP			ThumbIP			ThumbTip			IndexMCP			IndexPIP			IndexTip			MiddleMCP			MiddlePIP			MiddleTip			RingMCP			RingPIP			RingTip			PinkyMCP			PinkyPIP			PinkyTip			BackHand1			BackHand2			BackHand3	
		X0	Y0	Z0	X1	Y1	Z1	X2	Y2	Z2	X3	Y3	Z3	X4	Y4	Z4	X5	Y5	Z5	X6	Y6	Z6	X7	Y7	Z7	X8	Y8	Z8	X9	Y9	Z9	X10	Y10	Z10	X11	Y11	Z11	X12	Y12	Z12	X13	Y13	Z13	X14	Y14	Z14	X15	Y15	Z15	X16	Y16	Z16	X17	Y17	Z17	X18	Y18	Z18	
52	0.433333	-154.201	-12.9487	10.7167	-146.403	-6.10358	-20.9942	-127.533	-19.3226	-51.7631	-104.986	-34.7119	-50.261	-150.997	-65.3986	-44.4221	-134.091	-56.3445	-71.7108	-120.708	-27.425	-58.9211	-132.989	-78.9252	-46.7612	-117.417	-62.1286	-67.5378	-111.981	-31.099	-40.0438	-116.873	-81.3552	-30.2343	-100.269	-65.3744	-52.7125	-94.2838	-37.4608	-33.6126	-102.543	-81.8353	-16.556	-89.5877	-66.6902	-37.8585	-82.7815	-37.9282	-26.9469	-134.969	-71.3371	19.7159	-134.096	-60.1263	51.8564	-161.896	-49.401	20.8237	
53	0.441667	-156.937	-8.86724	14.2093	-150.412	-11.5046	-23.6305	-138.135	-25.3613	-50.8204	-121.472	-45.3524	-51.1766	-173.434	-64.7883	-38.2693	-157.089	-60.687	-68.4469	-138.157	-37.1361	-62.2455	-162.056	-79.7921	-42.6137	-139.152	-70.1556	-64.5351	-123.528	-44.2479	-39.7901	-146.383	-86.1109	-30.4534	-124.692	-80.2907	-50.3346	-110.843	-53.1661	-39.0387	-131.039	-90.7073	-13.9067	-116.638	-82.5033	-37.9141	-101.127	-58.1611	-31.8406	-151.989	-74.682	29.6384	-147.77	-61.2033	53.0455	-173.735	-44.1933	25.8135	
54	0.45	-155.592	-6.31593	12.9226	-148.353	-8.09051	-18.4264	-143.21	-23.1292	-48.0418	-133.975	-47.5708	-51.387	-189.086	-51.624	-36.3657	-171.444	-51.6204	-67.7844	-146.988	-36.3291	-61.2939	-182.028	-72.7856	-36.8993	-160.069	-66.4861	-62.6714	-135.128	-46.461	-40.1033	-167.747	-83.8947	-26.1517	-145.354	-82.3178	-49.2764	-126.589	-60.3287	-38.0541	-156.373	-91.1294	-15.233	-141.319	-87.939	-37.4572	-120.527	-68.3728	-31.0807	-170.253	-69.0302	29.166	-156.977	-58.0754	55.0562	-177.715	-32.1971	29.1952	
55	0.458333	-149.238	-1.6901	15.7648	-144.66	-2.48296	-20.0792	-144.552	-18.346	-44.7719	-143.519	-44.0609	-56.7486	-196.636	-29.6627	-34.4617	-182.649	-34.6216	-66.122	-151.485	-29.1833	-59.9466	-197.551	-49.3481	-37.9727	-175.859	-51.9581	-65.2105	-145.556	-46.4707	-44.2785	-188.741	-63.8789	-26.1754	-165.639	-71.6582	-52.4136	-140.716	-59.3207	-39.7284	-179.369	-80.1124	-14.6018	-167.311	-80.2437	-38.7633	-135.012	-70.6498	-31.9922	-183.082	-51.4951	27.4013	-171.03	-46.1327	51.8736	-180.278	-17.8635	33.277	
56	0.466667	-143.64	5.31127	14.3021	-137.261	4.41476	-19.8169	-140.979	-8.58584	-48.475	-147.243	-33.1152	-58.5239	-195.749	-4.14399	-39.4013	-182.486	-11.0163	-68.5203	-152.38	-16.2286	-62.0577	-203.381	-25.0183	-42.4176	-182.169	-35.6229	-66.3946	-151.625	-38.915	-42.6683	-199.185	-42.4773	-29.2887	-180.294	-55.0053	-55.161	-151.408	-49.3735	-41.3042	-193.696	-58.1235	-15.4676	-185.027	-63.882	-41.9842	-152.11	-65.9641	-37.6616	-195.262	-37.3255	22.4198	-179.565	-36.0987	53.1463	-177.805	-2.38024	27.2558	
57	0.475	-135.188	6.01345	18.4447	-129.076	5.86805	-15.4424	-137.976	-6.3993	-45.5274	-149.057	-25.1406	-54.5882	-185.144	16.1473	-43.9439	-174.119	3.86954	-69.9568	-146.32	-8.97821	-59.1475	-200.329	-1.5504	-44.8457	-185.718	-13.9735	-69.7447	-153.99	-28.4647	-44.5112	-202.198	-18.4168	-38.1366	-186.679	-32.537	-60.9209	-160.316	-40.4849	-46.84	-202.363	-37.7367	-21.9553	-190.589	-47.6663	-48.2479	-163.161	-56.9695	-43.5475	-195.287	-18.8809	20.3204	-182.952	-18.2794	47.4116	-172.434	9.00537	28.8086	
58	0.483333	-124.922	9.27854	18.8034	-120.018	5.53375	-15.1279	-125.477	-1.63692	-43.7102	-146.198	-18.0587	-56.423	-168.83	31.9267	-42.7411	-159.66	19.3079	-71.4742	-137.065	-5.00542	-56.5447	-187.728	19.1327	-45.7274	-172.163	1.52886	-72.3409	-150.086	-18.7405	-47.2194	-196.233	2.81523	-38.6318	-183.93	-14.7683	-63.646	-161.196	-29.0331	-49.6404	-202.606	-15.6685	-28.0827	-191.526	-24.6245	-52.059	-165.911	-43.0751	-44.0011	-190.956	4.0982	13.8579	-183.639	-6.47977	44.7351	-165.249	20.248	25.8688	
59	0.491667	-117.46	7.77289	20.6382	-110.913	2.95386	-13.8423	-117.349	-3.13395	-42.9249	-140.9	-14.0744	-53.7669	-147.85	42.1379	-48.6822	-135.545	24.4253	-72.4881	-127.99	-0.0932688	-58.5183	-172.075	33.8245	-52.123	-159.727	16.8326	-75.7592	-147.588	-11.8274	-50.7523	-184.205	19.5249	-46.1361	-171.878	-0.20797	-67.1968	-155.67	-21.9621	-46.2931	-194.564	1.85499	-31.3058	-183.14	-12.9736	-56.3583	-167.015	-29.912	-44.9572	-186.718	15.771	14.2425	-182.952	7.96105	40.7873	-151.519	30.5132	24.4886	
60	0.5	-111.332	6.74404	21.6325	-103.51	0.289544	-11.5001	-110.47	-5.4921	-45.722	-133.662	-11.5189	-53.0369	-132.515	42.4134	-44.4163	-125.153	25.3768	-73.1567	-119.671	-4.72864	-53.461	-152.146	41.186	-53.3996	-146.997	20.8424	-76.8465	-134.635	-9.59415	-48.4596	-170.828	28.8785	-48.1773	-164.682	6.38579	-69.4765	-150.356	-14.8315	-50.9537	-182.952	14.1253	-36.3597	-177.144	-2.5645	-58.7546	-163.597	-26.4423	-47.0963	-174.131	28.9487	6.43246	-173.733	18.0948	38.6897	-145.366	31.5371	22.2072	
61	0.508333	-104.708	3.14414	20.8968	-94.7138	-5.86728	-11.3087	-100.577	-11.306	-42.0972	-127.414	-13.9889	-56.9257	-120.73	40.3961	-45.3014	-113.306	20.6927	-73.0482	-107.726	-6.59254	-53.0756	-138.707	40.8983	-56.2898	-134.739	16.5529	-76.6413	-128.965	-9.4904	-47.7004	-160.472	31.6591	-49.0644	-152.557	10.8658	-71.4907	-146.465	-14.411	-48.8603	-175.685	20.3853	-41.6922	-166.237	1.57891	-61.0706	-156.389	-20.1074	-45.1201	-165.196	32.7699	3.57158	-166.463	23.4249	32.9041	-130.379	34.3897	24.2388	
62	0.516667	-98.9329	-1.53599	23.0575	-89.0012	-9.78389	-12.0025	-94.762	-14.8499	-38.3448	-120.971	-13.223	-54.2068	-104.329	38.4316	-47.627	-98.7862	19.0817	-72.2638	-103.499	-9.95928	-51.2352	-123.649	41.2363	-54.0308	-118.892	15.9331	-76.677	-124.161	-9.99196	-49.0715	-145.229	35.2329	-51.5818	-139.645	14.9513	-72.7286	-137.528	-12.2712	-48.7822	-162.329	25.9723	-40.9193	-156.826	7.14296	-62.1798	-151.291	-19.3472	-45.6043	-151.344	36.5901	8.55145	-154.616	27.0512	33.3986	-121.024	32.3876	22.8884	
63	0.525	-95.5716	-1.82198	21.9399	-83.8634	-11.4344	-10.0426	-90.3804	-14.3532	-39.2393	-115.563	-12.2675	-53.3711	-95.5445	37.5609	-46.4261	-92.2585	16.1402	-71.9639	-96.3009	-10.6434	-51.7432	-115.76	42.6551	-56.0436	-112.043	20.4107	-77.6323	-115.1	-8.28151	-48.935	-135.663	38.0835	-48.524	-132.253	16.2314	-72.6122	-133.703	-9.23402	-51.6791	-152.491	30.2158	-38.4987	-150.811	12.722	-63.121	-143.568	-13.5728	-47.0631	-141.985	39.1297	6.32616	-153.249	31.9468	34.2853	-112.5	35.1278	21.3452	
64	0.533333	-94.4525	2.89652	19.5155	-80.9959	-10.2235	-9.47712	-87.415	-10.7785	-45.4986	-112.764	-9.15484	-53.8244	-94.012	41.5272	-49.4096	-90.7172	18.6715	-73.3246	-91.9411	-5.82835	-55.1596	-110.805	47.3595	-55.4669	-111.791	21.883	-78.1487	-115.895	-4.37723	-49.1832	-134.699	43.4128	-52.1175	-132.321	21.5052	-73.6685	-129.438	-4.9662	-51.6173	-148.436	33.8455	-40.5905	-146.852	16.508	-63.6647	-147.279	-10.3329	-49.4066	-140.763	43.4577	5.45223	-147.301	33.9497	32.5365	-109.603	35.3596	20.7369	
65	0.541667	-93.0285	8.05574	19.4442	-81.3217	2.66191	-14.9235	-86.4659	-1.22857	-41.3855	-111.397	1.82372	-56.4701	-96.954	52.7217	-41.1037	-95.029	33.2623	-70.7007	-95.1586	4.4391	-51.9333	-115.591	57.2955	-51.5541	-117.388	34.3441	-75.6167	-118.773	6.1353	-52.2147	-134.022	50.7307	-47.9303	-133.773	29.6709	-70.4223	-131.834	3.52454	-51.0009	-151.348	40.3982	-40.2515	-151.964	23.1549	-61.0739	-141.2	-2.55555	-48.3237	-143.606	44.7398	10.9356	-150.923	37.4702	34.302	-114.625	41.1536	25.1472	
66	0.55	-91.696	16.0039	22.9474	-78.4771	16.7334	-9.56318	-85.8665	20.9021	-40.7923	-111.366	21.3252	-56.4394	-102.961	70.0388	-27.9333	-97.2413	57.6622	-60.1853	-94.3953	26.2694	-46.1564	-125.965	73.3455	-38.7752	-117.918	59.3395	-66.068	-117.204	22.2536	-44.6875	-142.837	63.546	-36.2518	-140.95	47.7474	-62.5821	-130.882	19.9296	-50.3194	-159.828	48.3946	-27.3404	-152.064	38.1183	-53.0852	-145.727	9.11631	-46.0638	-148.686	47.3934	21.7753	-153.933	31.3774	41.4421	-118.736	44.3476	35.6375	
67	0.558333	-92.5548	26.6021	29.75	-82.5172	33.8075	-2.5023	-87.9083	44.7474	-33.9806	-117.411	42.6805	-44.3479	-116.26	85.6115	-10.6225	-106.094	81.0728	-41.9388	-98.3743	48.6365	-36.0959	-136.938	86.1362	-18.3834	-128.31	77.1417	-49.0119	-121.992	41.4846	-37.791	-152.236	74.7577	-18.8406	-144.7	63.2695	-47.903	-132.101	35.6354	-39.0695	-165.934	58.2206	-18.7521	-156.579	49.5302	-43.4685	-142.043	23.4339	-37.219	-156.6	47.8536	34.1931	-155.407	26.9047	49.4056	-124.433	45.9889	46.5861	
68	0.566667	-94.344	33.4862	34.7059	-85.8096	47.9499	2.53833	-95.2159	59.8311	-22.4842	-122.351	58.6029	-37.9692	-123.729	98.5604	2.75178	-114.616	93.6637	-29.6654	-109.615	63.2265	-26.0531	-147.013	96.8575	-1.95691	-139.629	93.7262	-32.8605	-125.126	57.4368	-28.6422	-158.983	81.863	-3.08211	-152.686	77.2094	-34.5747	-140.061	47.6532	-33.293	-174.146	63.2395	-6.49386	-160.967	61.9235	-32.3106	-143.812	38.7758	-32.5067	-160.101	49.8371	41.2881	-159.329	23.412	57.2422	-129.355	47.3111	53.5037	
69	0.575	-99.9694	36.502	34.7933	-92.7128	55.1349	2.44668	-101.108	67.8815	-24.0906	-127.398	63.3262	-36.9181	-126.641	103.852	5.62553	-120.865	97.9932	-26.414	-114.71	67.9151	-23.254	-153.391	100.723	-1.74016	-146.496	97.2422	-30.7233	-130.535	59.2836	-24.8526	-167.537	83.0432	-2.85525	-161.494	80.5067	-32.1226	-141.736	52.8247	-31.0782	-178.007	65.9719	-4.78416	-165.259	64.5033	-29.913	-150.124	40.835	-33.3499	-164.281	47.3313	45.7295	-159.285	19.9224	58.8489	-131.321	48.604	55.4971	
70	0.583333	-99.588	38.7835	29.2693	-97.3248	49.7185	-2.70617	-106.202	59.2441	-32.961	-134.186	54.4673	-42.3008	-130.067	100.445	-8.01956	-122.759	94.968	-38.0706	-118.58	58.196	-30.5491	-152.682	95.9503	-11.6684	-149.082	87.7425	-42.3707	-131.561	53.7718	-31.7389	-171.134	78.8651	-11.9718	-160.178	69.2714	-42.3519	-143.892	40.5144	-32.5819	-181.807	61.5201	-13.67	-173.395	53.0107	-37.526	-150.102	30.793	-32.1827	-167.9	52.4403	38.3237	-156.964	28.0938	56.4211	-132.466	52.5089	49.5156	
71	0.591667	-103.645	38.2682	17.9615	-96.1876	35.0346	-13.9158	-111.186	35.9171	-43.0006	-137.978	28.1811	-52.9194	-137.427	80.8368	-34.4227	-128.194	64.4526	-60.8434	-120.418	37.1715	-42.475	-156.775	78.398	-36.4379	-148.412	60.4612	-63.333	-134.027	29.942	-38.1431	-170.779	63.5092	-34.7466	-166.159	46.935	-56.8179	-146.883	19.5303	-38.3458	-184.262	44.4893	-23.135	-172.863	29.9797	-46.6096	-151.699	9.92283	-33.7763	-169.395	54.9613	22.7491	-162.759	37.6945	48.7297	-132.327	59.3424	33.751	
72	0.6	-103.836	35.0894	16.8352	-96.9075	21.3159	-15.7134	-104.987	9.23604	-45.4109	-133.734	-0.315909	-49.4072	-137.29	54.7609	-54.3381	-129.032	31.0657	-74.5165	-114.489	12.1038	-51.5668	-157.796	46.5781	-58.7285	-147.566	18.7068	-71.9437	-132.896	4.71679	-40.4736	-170.692	34.9651	-49.3994	-159.525	9.35538	-63.8229	-140.666	-3.80992	-37.2567	-179.048	22.8757	-34.1645	-169.647	-0.864407	-48.1831	-150.731	-14.8499	-25.941	-172.87	50.1356	9.03357	-165.522	45.1137	39.86	-138.353	58.8417	19.0432	
